<?xml version="1.0" encoding="UTF-8" standalone="no" ?>
<!DOCTYPE svg PUBLIC "-//W3C//DTD SVG 1.1//EN" "http://www.w3.org/Graphics/SVG/1.1/DTD/svg11.dtd">
<svg xmlns="http://www.w3.org/2000/svg" xmlns:xlink="http://www.w3.org/1999/xlink" version="1.1" width="1024" height="1024" viewBox="0 0 1024 1024" xml:space="preserve">
<desc>Created with Fabric.js 3.1.0</desc>
<defs>
</defs>
<g transform="matrix(1 0 0 1 512 512)" id="background-logo"  >
<rect style="stroke: none; stroke-width: 1; stroke-dasharray: none; stroke-linecap: butt; stroke-dashoffset: 0; stroke-linejoin: miter; stroke-miterlimit: 10; fill: rgb(255,255,255); fill-rule: nonzero; opacity: 1;"  paint-order="stroke"  x="-512" y="-512" rx="0" ry="0" width="1024" height="1024" />
</g>
<g transform="matrix(1.5745007680491552 0 0 1.5745007680491552 649.9357647409698 512)"  >
<path style="stroke: none; stroke-width: 1; stroke-dasharray: none; stroke-linecap: butt; stroke-dashoffset: 0; stroke-linejoin: miter; stroke-miterlimit: 10; fill: rgb(244,107,44); fill-rule: nonzero; opacity: 1;"  paint-order="stroke"  transform=" translate(-172.49, 28.26)" d="M 14.28 0 L 3.25 0 L 3.25 -57.18 L 14.28 -57.18 L 14.28 -35.89 Q 18.73 -39.78 23.87 -39.78 L 23.87 -39.78 Q 24.9 -39.78 25.37 -39.64 L 25.37 -39.64 Q 28.72 -39.21 31.79 -37.55 Q 34.86 -35.89 37.15 -33 Q 39.45 -30.12 40.04 -26.6 L 40.04 -26.6 Q 40.47 -24.5 40.47 -22.51 L 40.47 -22.51 L 40.47 0 L 29.52 0 L 29.45 -22.25 Q 29.45 -25.8 27.46 -28.09 Q 25.47 -30.38 22.11 -30.38 L 22.11 -30.38 Q 18.83 -30.38 16.55 -28.04 Q 14.28 -25.7 14.28 -22.25 L 14.28 -22.25 L 14.28 0 Z M 48.21 -28.82 L 42.77 -28.82 L 42.77 -38.15 L 48.21 -38.15 L 48.21 -50.17 L 59.23 -50.17 L 59.23 -38.15 L 66.77 -38.15 L 66.77 -28.82 L 59.23 -28.82 L 59.23 -18.03 Q 59.23 -16.4 59.3 -15.64 L 59.3 -15.64 Q 59.5 -11.16 61.79 -10.46 L 61.79 -10.46 Q 62.49 -10.19 63.27 -10.16 Q 64.05 -10.13 64.93 -10.23 Q 65.81 -10.33 66.07 -10.33 L 66.07 -10.33 L 67.8 -0.66 Q 67.54 -0.66 64.51 -0.23 L 64.51 -0.23 Q 62.46 0.07 60.73 0.07 L 60.73 0.07 Q 59.93 0.07 59.23 0 L 59.23 0 Q 48.84 -1.2 48.34 -13.61 L 48.34 -13.61 Q 48.28 -14.97 48.28 -17.83 L 48.28 -17.83 L 48.21 -28.82 Z M 84.63 0 L 73.61 0 L 73.61 -57.18 L 84.63 -57.18 L 84.63 -35.89 Q 89.08 -39.78 94.23 -39.78 L 94.23 -39.78 Q 95.26 -39.78 95.72 -39.64 L 95.72 -39.64 Q 99.08 -39.21 102.15 -37.55 Q 105.22 -35.89 107.51 -33 Q 109.8 -30.12 110.4 -26.6 L 110.4 -26.6 Q 110.83 -24.5 110.83 -22.51 L 110.83 -22.51 L 110.83 0 L 99.88 0 L 99.81 -22.25 Q 99.81 -25.8 97.82 -28.09 Q 95.82 -30.38 92.47 -30.38 L 92.47 -30.38 Q 89.18 -30.38 86.91 -28.04 Q 84.63 -25.7 84.63 -22.25 L 84.63 -22.25 L 84.63 0 Z M 119.9 -5.91 Q 114.95 -11.72 114.95 -19.52 Q 114.95 -27.33 119.91 -33.14 Q 124.88 -38.95 132.21 -39.58 L 132.21 -39.58 Q 133.74 -39.71 134.74 -39.71 L 134.74 -39.71 Q 135.1 -39.71 135.44 -39.71 L 135.44 -39.71 Q 138.49 -39.71 141.98 -39.21 L 141.98 -39.21 Q 145.86 -38.65 148.75 -37.45 L 148.75 -37.45 Q 150.51 -37.75 151.14 -37.75 L 151.14 -37.75 Q 151.24 -37.75 151.34 -37.75 L 151.34 -37.75 Q 153.5 -37.39 155.76 -36.72 L 155.76 -36.72 L 155.76 0 L 144.8 0 L 144.8 -3.82 Q 140.18 0.6 133.64 0.6 L 133.64 0.6 Q 132.95 0.6 132.21 0.53 L 132.21 0.53 Q 124.84 -0.1 119.9 -5.91 Z M 126.37 -19.52 L 126.37 -19.52 Q 126.37 -14.91 128.94 -12.09 Q 131.52 -9.26 135.7 -9.26 L 135.7 -9.26 Q 139.79 -9.26 142.34 -12.04 Q 144.9 -14.81 144.93 -19.32 L 144.93 -19.32 L 144.93 -19.52 Q 144.93 -24.11 142.34 -26.91 Q 139.75 -29.72 135.7 -29.78 L 135.7 -29.78 Q 131.62 -29.78 128.99 -26.94 Q 126.37 -24.11 126.37 -19.52 Z M 159.47 -7.84 L 159.47 -7.84 L 166.35 -12.52 Q 169.8 -8.57 175.11 -8.57 L 175.11 -8.57 Q 177.74 -8.57 179.08 -9.45 Q 180.43 -10.33 180.43 -11.69 L 180.43 -11.69 Q 180.43 -11.95 180.06 -12.19 L 180.06 -12.19 Q 179.73 -13.08 178.52 -13.93 Q 177.3 -14.78 175.66 -15.51 Q 174.02 -16.24 172.08 -17.03 Q 170.13 -17.83 168.27 -18.83 Q 166.41 -19.82 164.87 -20.98 Q 163.33 -22.15 162.38 -23.82 Q 161.43 -25.5 161.43 -27.46 L 161.43 -27.46 Q 161.43 -29.55 162.5 -31.73 Q 163.56 -33.9 165.32 -35.64 Q 167.08 -37.39 169.65 -38.52 Q 172.22 -39.64 174.98 -39.64 L 174.98 -39.64 Q 179.46 -39.64 183.86 -37.7 Q 188.26 -35.76 190.82 -32.37 L 190.82 -32.37 L 184.51 -27.82 Q 182.58 -29.52 180.66 -30.2 Q 178.73 -30.88 176.34 -30.88 L 176.34 -30.88 Q 174.25 -30.88 173.22 -30.03 Q 172.19 -29.19 172.19 -27.89 L 172.19 -27.89 Q 172.19 -26.99 173.27 -26.2 Q 174.35 -25.4 176.09 -24.7 Q 177.84 -24.01 179.93 -23.24 Q 182.02 -22.48 184.11 -21.45 Q 186.2 -20.42 187.93 -19.17 Q 189.66 -17.93 190.72 -16.07 Q 191.78 -14.21 191.78 -11.95 L 191.78 -11.95 Q 191.78 -8.7 189.61 -5.78 Q 187.43 -2.86 183.83 -1.13 Q 180.23 0.6 176.21 0.6 L 176.21 0.6 Q 171.03 0.6 166.31 -1.68 Q 161.6 -3.95 159.47 -7.84 Z M 199.05 -28.82 L 193.61 -28.82 L 193.61 -38.15 L 199.05 -38.15 L 199.05 -50.17 L 210.08 -50.17 L 210.08 -38.15 L 217.61 -38.15 L 217.61 -28.82 L 210.08 -28.82 L 210.08 -18.03 Q 210.08 -16.4 210.14 -15.64 L 210.14 -15.64 Q 210.34 -11.16 212.63 -10.46 L 212.63 -10.46 Q 213.33 -10.19 214.11 -10.16 Q 214.89 -10.13 215.77 -10.23 Q 216.65 -10.33 216.92 -10.33 L 216.92 -10.33 L 218.64 -0.66 Q 218.38 -0.66 215.36 -0.23 L 215.36 -0.23 Q 213.3 0.07 211.57 0.07 L 211.57 0.07 Q 210.77 0.07 210.08 0 L 210.08 0 Q 199.68 -1.2 199.19 -13.61 L 199.19 -13.61 Q 199.12 -14.97 199.12 -17.83 L 199.12 -17.83 L 199.05 -28.82 Z M 225.7 -9.65 Q 222.89 -14.31 222.89 -19.52 Q 222.89 -24.74 225.71 -29.4 Q 228.54 -34.07 233.32 -36.89 Q 238.1 -39.71 243.51 -39.71 L 243.51 -39.71 Q 247.6 -39.71 251.41 -38.02 Q 255.23 -36.32 257.97 -33.57 Q 260.71 -30.81 262.37 -27.11 Q 264.03 -23.41 264.03 -19.52 L 264.03 -19.52 Q 264.03 -15.61 262.37 -11.9 Q 260.71 -8.2 257.97 -5.45 Q 255.23 -2.69 251.41 -1.01 Q 247.6 0.66 243.51 0.66 L 243.51 0.66 Q 238.07 0.66 233.29 -2.16 Q 228.5 -4.98 225.7 -9.65 Z M 234.05 -19.52 L 234.05 -19.52 Q 234.08 -15.14 236.74 -12.29 L 236.74 -12.29 Q 239.36 -9.46 243.28 -9.46 L 243.28 -9.46 Q 243.38 -9.46 243.45 -9.46 L 243.45 -9.46 Q 247.53 -9.46 250.2 -12.3 Q 252.88 -15.14 252.88 -19.52 Q 252.88 -23.91 250.2 -26.75 Q 247.53 -29.58 243.45 -29.58 L 243.45 -29.58 Q 239.39 -29.58 236.72 -26.75 Q 234.05 -23.91 234.05 -19.52 Z M 280.4 0 L 269.38 0 L 269.38 -39.25 L 280.4 -39.25 L 280.4 -34.53 Q 281.53 -36.42 284.55 -38.03 Q 287.57 -39.64 290.86 -39.78 L 290.86 -39.78 Q 292.22 -39.78 294.15 -39.64 L 294.15 -39.64 Q 295.24 -39.48 296.35 -39.2 Q 297.47 -38.91 298.11 -38.73 Q 298.76 -38.55 299.03 -38.55 L 299.03 -38.55 L 296.17 -28.62 Q 295.64 -28.62 293.71 -28.89 L 293.71 -28.89 Q 291.16 -29.32 289.23 -29.32 L 289.23 -29.32 Q 288.14 -29.32 287.21 -29.19 L 287.21 -29.19 Q 285.31 -28.92 283.9 -27.92 Q 282.49 -26.93 281.78 -25.57 Q 281.06 -24.21 280.73 -22.89 Q 280.4 -21.58 280.4 -20.32 L 280.4 -20.32 L 280.4 0 Z M 302.81 -19.52 L 302.81 -19.52 Q 302.81 -23.91 304.46 -27.72 Q 306.1 -31.54 308.81 -34.15 Q 311.51 -36.76 315.01 -38.23 Q 318.52 -39.71 322.27 -39.71 L 322.27 -39.71 Q 331.63 -39.71 336.68 -33.54 Q 341.73 -27.36 341.73 -16.4 L 341.73 -16.4 L 314.1 -16.4 Q 314.6 -13.25 317.11 -11.09 Q 319.61 -8.93 322.97 -8.63 L 322.97 -8.63 Q 323.5 -8.57 324.06 -8.57 L 324.06 -8.57 Q 326.09 -8.57 328.01 -9.36 L 328.01 -9.36 Q 330.47 -10.36 331.93 -12.38 L 331.93 -12.38 L 341.03 -10.33 Q 340.1 -8.2 338.71 -6.39 Q 337.31 -4.58 335.19 -2.92 Q 333.06 -1.26 329.92 -0.3 Q 326.79 0.66 323.03 0.66 L 323.03 0.66 Q 319.25 0.66 315.63 -0.76 Q 312.01 -2.19 309.15 -4.73 Q 306.3 -7.27 304.56 -11.14 Q 302.81 -15.01 302.81 -19.52 Z M 314.3 -23.87 L 314.3 -23.87 L 330.9 -23.87 Q 330.64 -26.7 328.26 -28.92 Q 325.89 -31.14 322.47 -31.14 L 322.47 -31.14 Q 319.18 -31.14 317.01 -29.1 Q 314.83 -27.06 314.3 -23.87 Z" stroke-linecap="round" />
</g>
<g transform="matrix(0.9185259797245984 0 0 0.9185259797245984 221.2738496998021 512)" style="" id="logo-logo"  >
	<g transform="matrix(0.2517 0 0 -0.2517 -12.93856525000001 73.55199450000006)"  >
<linearGradient id="SVGID_44610" gradientUnits="userSpaceOnUse" gradientTransform="matrix(-1346.96 -0.00012 -0.00004 480.889 1218.49 2855.51)"  x1="5.684341886080802e-14" y1="0" x2="1.0000000000000568" y2="0">
<stop offset="0%" style="stop-color:rgb(90,200,195);stop-opacity: 1"/>
<stop offset="100%" style="stop-color:rgb(42,113,159);stop-opacity: 1"/>
</linearGradient>
<path style="stroke: none; stroke-width: 1; stroke-dasharray: none; stroke-linecap: butt; stroke-dashoffset: 0; stroke-linejoin: miter; stroke-miterlimit: 10; fill: url(#SVGID_44610); fill-rule: nonzero; opacity: 1;"  paint-order="stroke"  transform=" translate(-777.2255, -3095.9500000000003)" d="m 772.145 3002.96 h 394.665 c -90.24 -79.46 -208.408 -127.45 -338.197 -127.45 c -187.8 0 -351.601 100.51 -440.972 251.17 H 480 H 633.52 l 73.808 189.71 H 893.984 L 820.25 3126.68 h 0.145 l -48.25 -123.72" stroke-linecap="round" />
</g>
	<g transform="matrix(0.2517 0 0 -0.2517 -21.960665249999977 -49.59770549999999)"  >
<linearGradient id="SVGID_44611" gradientUnits="userSpaceOnUse" gradientTransform="matrix(-1346.96 -0.00012 -0.00006 671.221 1218.49 3249.66)"  x1="5.684341886080802e-14" y1="0" x2="1.0000000000000568" y2="0">
<stop offset="0%" style="stop-color:rgb(248,155,50);stop-opacity: 1"/>
<stop offset="100%" style="stop-color:rgb(238,37,34);stop-opacity: 1"/>
</linearGradient>
<path style="stroke: none; stroke-width: 1; stroke-dasharray: none; stroke-linecap: butt; stroke-dashoffset: 0; stroke-linejoin: miter; stroke-miterlimit: 10; fill: url(#SVGID_44611); fill-rule: nonzero; opacity: 1;"  paint-order="stroke"  transform=" translate(-741.3775, -3585.27)" d="m 1166.81 3773.36 h -95.14 L 1023.55 3649.67 L 949.574 3459.5 H 762.98 l 73.836 190.17 H 683.262 L 535.625 3269.66 H 329.762 c -9.137 38.29 -13.817 77.89 -13.817 118.51 c 0 283.18 229.383 512.71 512.668 512.71 c 129.789 0 247.957 -48.17 338.197 -127.52" stroke-linecap="round" />
</g>
	<g transform="matrix(0.2517 0 0 -0.2517 57.40883474999998 0.009994499999919526)"  >
<linearGradient id="SVGID_44612" gradientUnits="userSpaceOnUse" gradientTransform="matrix(-1243.99 0.00011 0.00007 810.396 2015.2 2982.96)"  x1="-1.1368683772161603e-13" y1="0" x2="0.9999999999998863" y2="0">
<stop offset="0%" style="stop-color:rgb(112,32,143);stop-opacity: 1"/>
<stop offset="100%" style="stop-color:rgb(63,28,84);stop-opacity: 1"/>
</linearGradient>
<path style="stroke: none; stroke-width: 1; stroke-dasharray: none; stroke-linecap: butt; stroke-dashoffset: 0; stroke-linejoin: miter; stroke-miterlimit: 10; fill: url(#SVGID_44612); fill-rule: nonzero; opacity: 1;"  paint-order="stroke"  transform=" translate(-1056.7424999999998, -3388.16)" d="m 1166.81 3773.36 c 106.95 -93.88 174.53 -231.66 174.53 -385.19 c 0 -153.55 -67.58 -291.32 -174.53 -385.21 H 772.145 l 48.25 123.72 h 153.41 l 203.285 522.99 h -153.54 l 48.12 123.69 h 95.14" stroke-linecap="round" />
</g>
</g>
</svg>